# 3ds Max Wavefront OBJ Exporter v0.97b - (c)2007 guruware
# File Created: 09.03.2015 16:58:20

mtllib LightCone.mtl

#
# object Cone001
#

v  6.2689 -0.0299 -2.6443
v  6.0395 -0.0299 -4.3868
v  2.5577 57.0642 -3.4539
v  2.6643 57.0642 -2.6443
v  5.3669 -0.0299 -6.0106
v  2.2452 57.0642 -4.2083
v  4.2969 -0.0299 -7.4050
v  1.7481 57.0642 -4.8562
v  2.9026 -0.0299 -8.4749
v  1.1003 57.0642 -5.3533
v  1.2788 -0.0299 -9.1475
v  0.3458 57.0642 -5.6658
v  -0.4638 -0.0299 -9.3770
v  -0.4638 57.0642 -5.7724
v  -2.2063 -0.0299 -9.1475
v  -1.2734 57.0642 -5.6658
v  -3.8301 -0.0299 -8.4749
v  -2.0278 57.0642 -5.3533
v  -5.2245 -0.0299 -7.4050
v  -2.6756 57.0642 -4.8562
v  -6.2944 -0.0299 -6.0106
v  -3.1728 57.0642 -4.2083
v  -6.9670 -0.0299 -4.3868
v  -3.4853 57.0642 -3.4539
v  -7.1964 -0.0299 -2.6443
v  -3.5918 57.0642 -2.6443
v  -6.9670 -0.0299 -0.9017
v  -3.4853 57.0642 -1.8347
v  -6.2944 -0.0299 0.7220
v  -3.1728 57.0642 -1.0803
v  -5.2245 -0.0299 2.1164
v  -2.6756 57.0642 -0.4324
v  -3.8301 -0.0299 3.1864
v  -2.0278 57.0642 0.0647
v  -2.2063 -0.0299 3.8590
v  -1.2734 57.0642 0.3772
v  -0.4638 -0.0299 4.0884
v  -0.4638 57.0642 0.4838
v  1.2788 -0.0299 3.8590
v  0.3458 57.0642 0.3772
v  2.9026 -0.0299 3.1864
v  1.1003 57.0642 0.0647
v  4.2969 -0.0299 2.1164
v  1.7481 57.0642 -0.4324
v  5.3669 -0.0299 0.7221
v  2.2452 57.0642 -1.0802
v  6.0395 -0.0299 -0.9017
v  2.5577 57.0642 -1.8347
# 48 vertices

vn 0.9954 0.0958 0.0000
vn 0.9615 0.0958 -0.2576
vn 0.8620 0.0958 -0.4977
vn 0.7039 0.0958 -0.7039
vn 0.4977 0.0958 -0.8620
vn 0.2576 0.0958 -0.9615
vn 0.0000 0.0958 -0.9954
vn -0.2576 0.0958 -0.9615
vn -0.4977 0.0958 -0.8620
vn -0.7039 0.0958 -0.7039
vn -0.8620 0.0958 -0.4977
vn -0.9615 0.0958 -0.2576
vn -0.9954 0.0958 -0.0000
vn -0.9615 0.0958 0.2576
vn -0.8620 0.0958 0.4977
vn -0.7039 0.0958 0.7039
vn -0.4977 0.0958 0.8620
vn -0.2576 0.0958 0.9615
vn -0.0000 0.0958 0.9954
vn 0.2576 0.0958 0.9615
vn 0.4977 0.0958 0.8620
vn 0.7039 0.0958 0.7039
vn 0.8620 0.0958 0.4977
vn 0.9615 0.0958 0.2576
# 24 vertex normals

vt 0.5273 0.9580 0.0000
vt 0.4060 0.9487 0.0000
vt 0.4409 0.7827 0.0000
vt 0.5181 0.7887 0.0000
vt 0.2912 0.9083 0.0000
vt 0.3679 0.7570 0.0000
vt 0.1908 0.8396 0.0000
vt 0.3040 0.7133 0.0000
vt 0.1116 0.7472 0.0000
vt 0.2536 0.6545 0.0000
vt 0.0590 0.6374 0.0000
vt 0.2202 0.5847 0.0000
vt 0.0365 0.5178 0.0000
vt 0.2059 0.5086 0.0000
vt 0.0459 0.3965 0.0000
vt 0.2118 0.4314 0.0000
vt 0.0863 0.2817 0.0000
vt 0.2375 0.3584 0.0000
vt 0.1550 0.1813 0.0000
vt 0.2813 0.2945 0.0000
vt 0.2474 0.1021 0.0000
vt 0.3400 0.2441 0.0000
vt 0.3571 0.0494 0.0000
vt 0.4098 0.2106 0.0000
vt 0.4767 0.0270 0.0000
vt 0.4859 0.1964 0.0000
vt 0.5981 0.0364 0.0000
vt 0.5631 0.2023 0.0000
vt 0.7129 0.0768 0.0000
vt 0.6362 0.2280 0.0000
vt 0.8133 0.1455 0.0000
vt 0.7000 0.2717 0.0000
vt 0.8925 0.2379 0.0000
vt 0.7504 0.3305 0.0000
vt 0.9451 0.3476 0.0000
vt 0.7839 0.4003 0.0000
vt 0.9675 0.4672 0.0000
vt 0.7982 0.4764 0.0000
vt 0.9582 0.5886 0.0000
vt 0.7922 0.5536 0.0000
vt 0.9178 0.7034 0.0000
vt 0.7665 0.6266 0.0000
vt 0.8491 0.8038 0.0000
vt 0.7228 0.6905 0.0000
vt 0.7567 0.8830 0.0000
vt 0.6640 0.7409 0.0000
vt 0.6469 0.9356 0.0000
vt 0.5942 0.7744 0.0000
# 48 texture coords

g Cone001
usemtl Light_Beam
s 8
f 1/1/1 2/2/2 3/3/2 4/4/1 
f 2/2/2 5/5/3 6/6/3 3/3/2 
f 5/5/3 7/7/4 8/8/4 6/6/3 
f 7/7/4 9/9/5 10/10/5 8/8/4 
f 9/9/5 11/11/6 12/12/6 10/10/5 
f 11/11/6 13/13/7 14/14/7 12/12/6 
f 13/13/7 15/15/8 16/16/8 14/14/7 
f 15/15/8 17/17/9 18/18/9 16/16/8 
f 17/17/9 19/19/10 20/20/10 18/18/9 
f 19/19/10 21/21/11 22/22/11 20/20/10 
f 21/21/11 23/23/12 24/24/12 22/22/11 
f 23/23/12 25/25/13 26/26/13 24/24/12 
f 25/25/13 27/27/14 28/28/14 26/26/13 
f 27/27/14 29/29/15 30/30/15 28/28/14 
f 29/29/15 31/31/16 32/32/16 30/30/15 
f 31/31/16 33/33/17 34/34/17 32/32/16 
f 33/33/17 35/35/18 36/36/18 34/34/17 
f 35/35/18 37/37/19 38/38/19 36/36/18 
f 37/37/19 39/39/20 40/40/20 38/38/19 
f 39/39/20 41/41/21 42/42/21 40/40/20 
f 41/41/21 43/43/22 44/44/22 42/42/21 
f 43/43/22 45/45/23 46/46/23 44/44/22 
f 45/45/23 47/47/24 48/48/24 46/46/23 
f 47/47/24 1/1/1 4/4/1 48/48/24 
# 24 polygons

