# 3ds Max Wavefront OBJ Exporter v0.97b - (c)2007 guruware
# File Created: 27.03.2015 03:16:10

#
# object Step_Tes
#

v  -1.2339 -1.0572 -0.7519
v  -1.2339 -1.4788 -0.3833
v  -1.6084 -0.9629 -0.5627
v  -1.5546 -1.0924 -1.2719
v  -1.0824 -1.1779 1.0464
v  -0.1323 -1.2297 1.1720
v  -0.0993 -0.9005 1.7805
v  -1.4203 -0.6195 1.3744
v  0.9242 -0.8566 0.9422
v  0.9814 -0.8566 0.0636
v  1.8137 -0.8796 0.1015
v  1.4497 -1.0440 1.5409
v  0.9931 -1.0832 -1.1412
v  0.6760 -1.1821 -1.3122
v  0.6404 -1.0761 -1.6279
v  1.2567 -0.9023 -1.5756
v  -1.6836 -0.7282 -1.5861
v  -1.7783 -0.7282 -0.1326
v  -2.3017 0.0117 -0.1326
v  -2.3017 0.0117 -2.7565
v  -0.1372 0.0117 2.1740
v  -2.3017 0.0117 2.1740
v  2.6259 0.0117 0.1680
v  2.6259 0.0117 1.7279
v  1.8583 -0.7282 -1.6992
v  0.1347 -0.7282 -1.8115
v  0.2002 0.0117 -2.7565
v  2.1258 -0.4704 -2.0676
v  -0.8143 -0.8566 -1.0387
v  -0.9259 -0.8546 -0.9459
v  -1.3074 -0.7282 -2.2335
v  1.1560 -1.0849 -1.0663
v  1.6133 -0.9721 -1.5085
v  -1.4940 -0.8996 0.9374
v  -1.8699 -0.7907 1.2724
v  0.6794 -0.8546 1.0408
v  1.2123 -1.0440 1.8660
v  -1.0991 0.0117 -2.7565
v  2.2507 -0.3677 -1.9229
v  1.8940 -0.7282 -1.1304
v  2.6259 0.0117 -1.4351
v  -2.3017 0.0117 1.4378
v  2.6259 0.0117 2.1740
v  -1.0520 -1.2028 -0.0043
v  1.0387 -1.2949 -0.4249
v  0.0644 -1.2949 -0.9814
v  0.9430 -1.4350 -0.9241
v  1.3302 0.0117 -2.3430
v  -0.5205 -1.6983 0.0135
v  -0.3049 -2.3527 0.0309
v  -0.5724 -1.7486 0.2597
v  0.0072 -1.8087 -0.5355
v  0.6144 -1.6424 -0.0743
v  0.4093 -1.6266 0.1791
v  -0.0669 -1.6843 0.4987
v  -0.4919 -1.7469 0.3743
v  0.1963 -1.6370 0.3512
v  2.6259 0.0117 -2.7565
# 58 vertices

vn -0.4794 -0.5776 -0.6608
vn -0.1614 -0.9729 0.1654
vn -0.1106 -0.8716 0.4776
vn -0.3479 -0.6223 0.7012
vn -0.0276 -0.9996 -0.0018
vn -0.1711 -0.9731 -0.1544
vn 0.4387 -0.8358 -0.3302
vn 0.2820 -0.9343 -0.2181
vn -0.8152 -0.5767 -0.0531
vn -0.7674 -0.6411 0.0000
vn -0.3450 -0.3838 0.8565
vn -0.0000 -0.7849 0.6196
vn 0.7308 -0.6740 0.1079
vn 0.6679 -0.7442 -0.0000
vn 0.0400 -0.7881 -0.6143
vn -0.0000 -0.8193 -0.5733
vn -0.0910 -0.9920 -0.0880
vn -0.1073 -0.9923 -0.0623
vn 0.1334 -0.9410 -0.3111
vn -0.1149 -0.9276 -0.3554
vn -0.5704 -0.6443 0.5094
vn 0.2054 -0.8393 0.5034
vn -0.0964 -0.9709 -0.2193
vn -0.1634 -0.9793 -0.1193
vn -0.4758 -0.8349 -0.2765
vn -0.0000 -0.5773 -0.8166
vn 0.6631 -0.7473 -0.0416
vn 0.7109 -0.7033 0.0000
vn 0.1152 -0.7140 0.6906
vn -0.8806 -0.4739 -0.0000
vn 0.5037 -0.7817 0.3677
vn -0.3295 -0.9420 -0.0634
vn -0.5484 -0.8362 0.0117
vn 0.5088 -0.8579 -0.0723
vn -0.0509 -0.7463 0.6637
vn -0.8806 -0.4739 0.0000
vn -0.8139 -0.5757 -0.0786
vn 0.7109 -0.7033 -0.0000
vn 0.7400 -0.6717 -0.0343
vn -0.0968 -0.9819 -0.1629
vn 0.4365 -0.8010 0.4098
vn 0.0355 -0.9920 -0.1212
vn -0.3442 -0.7616 -0.5491
vn -0.0000 -0.2801 0.9600
vn -0.1029 -0.3976 0.9118
vn 0.1753 -0.7810 -0.5994
vn 0.2578 -0.8433 -0.4716
vn 0.8467 -0.1425 -0.5127
vn 0.8710 -0.4871 -0.0635
vn -0.0412 -0.6576 -0.7522
vn -0.5605 -0.7998 0.2149
vn -0.7358 -0.3282 0.5923
vn -0.9235 -0.3790 -0.0602
vn -0.7495 -0.6590 0.0635
vn 0.4097 -0.8864 -0.2153
vn 0.4395 -0.8674 0.2333
vn 0.9685 -0.2153 -0.1253
vn 0.1229 -0.9496 -0.2884
vn -0.1059 -0.8648 -0.4908
vn 0.5267 -0.4995 -0.6878
vn -0.3275 -0.7672 -0.5515
vn 0.0025 -0.9479 -0.3186
vn 0.0475 -0.6825 -0.7293
vn 0.1574 -0.2723 -0.9492
vn 0.6878 -0.7246 -0.0431
vn 0.0226 -0.6297 -0.7765
vn 0.0000 1.0000 0.0000
vn 0.0000 1.0000 -0.0000
vn -0.0000 1.0000 0.0000
vn -0.9161 -0.3085 -0.2562
vn -0.3784 -0.8156 -0.4377
vn -0.7222 -0.2550 -0.6430
vn -0.1692 -0.9400 0.2963
vn 0.2773 -0.6987 0.6595
vn 0.5650 -0.6575 0.4985
vn 0.3856 -0.6288 -0.6752
vn -0.2963 -0.6070 -0.7374
vn -0.5909 -0.7277 -0.3482
vn -0.1670 -0.5247 0.8347
vn -0.7043 -0.5019 0.5020
vn 0.4673 -0.6125 0.6375
vn 0.5100 -0.6227 0.5935
vn 0.5235 -0.7400 -0.4223
vn 0.6243 -0.1574 -0.7651
vn 0.8012 -0.5663 0.1936
vn 0.3468 -0.7500 0.5632
vn 0.4256 -0.7312 0.5332
vn -0.0976 -0.8144 0.5720
vn -0.5528 -0.8027 0.2238
vn -0.7068 -0.6920 -0.1467
vn -0.6024 -0.6621 -0.4459
# 91 vertex normals

vt 0.0624 0.8625 0.0000
vt 0.1112 0.8852 0.0000
vt 0.0498 0.9018 0.0000
vt 0.7455 0.6381 0.0000
vt 0.6885 0.6003 0.0000
vt 0.7472 0.5978 0.0000
vt 0.6058 0.6132 0.0000
vt 0.5961 0.7048 0.0000
vt 0.5377 0.7095 0.0000
vt 0.7079 0.2758 0.0000
vt 0.6761 0.1476 0.0000
vt 0.7309 0.1760 0.0000
vt 0.6208 0.8058 0.0000
vt 0.7054 0.8091 0.0000
vt 0.7038 0.8892 0.0000
vt 0.5646 0.8578 0.0000
vt 0.8213 0.8072 0.0000
vt 0.8369 0.7763 0.0000
vt 0.8672 0.7721 0.0000
vt 0.8637 0.8315 0.0000
vt 0.1175 0.9041 0.0000
vt 0.2575 0.9041 0.0000
vt 0.2608 0.9753 0.0000
vt 0.0091 0.9753 0.0000
vt 0.6203 0.2779 0.0000
vt 0.7314 0.2522 0.0000
vt 0.9299 0.1895 0.0000
vt 0.8786 0.3084 0.0000
vt 0.5069 0.8776 0.0000
vt 0.3634 0.8725 0.0000
vt 0.3452 0.7578 0.0000
vt 0.6995 0.9674 0.0000
vt 0.5495 0.9713 0.0000
vt 0.8770 0.8890 0.0000
vt 0.8835 0.7231 0.0000
vt 0.9745 0.7270 0.0000
vt 0.9131 0.9138 0.0000
vt 0.8069 0.6338 0.0000
vt 0.7977 0.6233 0.0000
vt 0.8574 0.5489 0.0000
vt 0.9205 0.5834 0.0000
vt 0.8145 0.8231 0.0000
vt 0.8581 0.8659 0.0000
vt 0.9003 0.3536 0.0000
vt 0.8651 0.3735 0.0000
vt 0.9252 0.3124 0.0000
vt 0.6107 0.7825 0.0000
vt 0.5328 0.8358 0.0000
vt 0.9683 0.4865 0.0000
vt 0.5061 0.7032 0.0000
vt 0.3908 0.7032 0.0000
vt 0.4075 0.6321 0.0000
vt 0.8995 0.9262 0.0000
vt 0.8225 0.8939 0.0000
vt 0.1954 0.7902 0.0000
vt 0.2454 0.8817 0.0000
vt 0.1609 0.8501 0.0000
vt 0.4821 0.9753 0.0000
vt 0.4115 0.9753 0.0000
vt 0.3929 0.8981 0.0000
vt 0.5067 0.9724 0.0000
vt 0.7323 0.3338 0.0000
vt 0.7319 0.2843 0.0000
vt 0.8312 0.3766 0.0000
vt 0.7685 0.4296 0.0000
vt 0.7525 0.8134 0.0000
vt 0.8036 0.7184 0.0000
vt 0.7265 0.4016 0.0000
vt 0.6302 0.5428 0.0000
vt 0.2661 0.7032 0.0000
vt 0.7783 0.5942 0.0000
vt 0.5073 0.9015 0.0000
vt 0.4523 0.9225 0.0000
vt 0.4109 0.8985 0.0000
vt 0.8753 0.3912 0.0000
vt 0.9724 0.3882 0.0000
vt 0.9496 0.4260 0.0000
vt 0.0492 0.8270 0.0000
vt 0.8471 0.4201 0.0000
vt 0.0847 0.6992 0.0000
vt 0.0854 0.7629 0.0000
vt 0.0370 0.7625 0.0000
vt 0.1468 0.8691 0.0000
vt 0.2152 0.8816 0.0000
vt 0.5151 0.7286 0.0000
vt 0.4741 0.7557 0.0000
vt 0.4437 0.7298 0.0000
vt 0.8003 0.8030 0.0000
vt 0.4506 0.8172 0.0000
vt 0.4491 0.7813 0.0000
vt 0.4891 0.7832 0.0000
vt 0.2898 0.6655 0.0000
vt 0.1237 0.6655 0.0000
vt 0.1806 0.6488 0.0000
vt 0.2401 0.6321 0.0000
vt 0.1460 0.6420 0.0000
vt 0.0980 0.5874 0.0000
vt 0.0116 0.5871 0.0000
vt 0.0660 0.0093 0.0000
vt 0.0125 0.3332 0.0000
vt 0.2490 0.0099 0.0000
vt 0.2822 0.5880 0.0000
vt 0.4370 0.0106 0.0000
vt 0.5900 0.5891 0.0000
vt 0.5905 0.4481 0.0000
vt 0.5430 0.1629 0.0000
vt 0.7637 0.9572 0.0000
vt 0.7169 0.9151 0.0000
vt 0.7760 0.9361 0.0000
vt 0.7185 0.9919 0.0000
vt 0.1264 0.7425 0.0000
vt 0.2288 0.6989 0.0000
vt 0.2694 0.7475 0.0000
vt 0.7576 0.6629 0.0000
vt 0.7515 0.7575 0.0000
vt 0.7264 0.7448 0.0000
vt 0.9473 0.4460 0.0000
vt 0.8559 0.5096 0.0000
vt 0.8394 0.4460 0.0000
vt 0.7740 0.5709 0.0000
vt 0.7318 0.5498 0.0000
vt 0.8389 0.4898 0.0000
vt 0.3981 0.7163 0.0000
vt 0.4334 0.7759 0.0000
vt 0.3914 0.7763 0.0000
vt 0.2937 0.6035 0.0000
vt 0.3577 0.6130 0.0000
vt 0.2911 0.6162 0.0000
vt 0.6929 0.7074 0.0000
vt 0.7084 0.7290 0.0000
vt 0.7090 0.1083 0.0000
vt 0.6059 0.1523 0.0000
vt 0.6401 0.0786 0.0000
vt 0.7765 0.0814 0.0000
vt 0.7948 0.1545 0.0000
vt 0.6995 0.1288 0.0000
vt 0.6929 0.7544 0.0000
vt 0.6758 0.7344 0.0000
vt 0.6610 0.7094 0.0000
vt 0.6719 0.6683 0.0000
vt 0.6153 0.5734 0.0000
vt 0.6827 0.6603 0.0000
vt 0.8003 0.9877 0.0000
vt 0.8840 0.9376 0.0000
vt 0.7245 0.4762 0.0000
vt 0.0137 0.0091 0.0000
vt 0.9806 0.9602 0.0000
vt 0.0720 0.8169 0.0000
vt 0.5920 0.0111 0.0000
vt 0.5910 0.2957 0.0000
# 150 texture coords

g Step_Tes
s off
f 1/1/1 2/2/1 3/3/1 
f 3/4/2 4/5/2 1/6/2 
f 5/7/3 6/8/3 7/9/3 
f 7/10/4 8/11/4 5/12/4 
f 9/13/5 10/14/5 11/15/5 
f 11/15/6 12/16/6 9/13/6 
f 13/17/7 14/18/7 15/19/7 
f 15/19/8 16/20/8 13/17/8 
f 17/21/9 18/22/9 19/23/9 
f 19/23/10 20/24/10 17/21/10 
f 8/11/11 7/10/11 21/25/11 
f 21/26/12 22/27/12 8/28/12 
f 12/29/13 11/30/13 23/31/13 
f 23/32/14 24/33/14 12/16/14 
f 25/34/15 26/35/15 27/36/15 
f 27/36/16 28/37/16 25/34/16 
f 29/38/17 30/39/17 17/40/17 
f 17/40/18 31/41/18 29/38/18 
f 32/42/19 13/17/19 16/20/19 
f 16/20/20 33/43/20 32/42/20 
f 34/44/21 5/45/21 8/28/21 
f 8/28/22 35/46/22 34/44/22 
f 36/47/23 9/13/23 12/16/23 
f 12/16/24 37/48/24 36/47/24 
f 31/41/25 17/40/25 20/49/25 
f 20/50/26 38/51/26 31/52/26 
f 28/37/27 39/53/27 40/54/27 25/34/27 
f 41/55/28 40/56/28 39/57/28 
f 35/46/29 8/28/29 22/27/29 
f 22/58/30 42/59/30 35/60/30 
f 43/61/14 12/16/14 24/33/14 
f 12/16/31 43/61/31 37/48/31 
f 34/62/32 35/63/32 18/64/32 
f 18/64/33 44/65/33 34/62/33 
f 45/66/34 40/54/34 11/15/34 
f 11/15/35 10/14/35 45/66/35 
f 35/60/36 42/59/36 19/23/36 
f 19/23/37 18/22/37 35/60/37 
f 40/56/38 41/55/38 23/31/38 
f 23/31/39 11/30/39 40/56/39 
f 36/47/40 37/48/40 7/9/40 
f 7/9/41 6/8/41 36/47/41 
f 29/38/42 31/41/42 26/35/42 
f 26/35/43 46/67/43 29/38/43 
f 37/68/44 43/69/44 21/25/44 
f 21/25/45 7/10/45 37/68/45 
f 31/52/26 38/51/26 27/70/26 
f 27/36/46 26/35/46 31/41/46 
f 17/40/47 30/39/47 1/71/47 
f 1/72/48 4/73/48 17/74/48 
f 30/75/49 44/76/49 2/77/49 
f 2/2/50 1/1/50 30/78/50 
f 44/65/51 18/64/51 3/79/51 
f 3/80/52 2/81/52 44/82/52 
f 18/22/53 17/21/53 4/83/53 
f 4/83/54 3/84/54 18/22/54 
f 40/54/55 45/66/55 32/42/55 
f 32/42/56 33/43/56 40/54/56 
f 45/85/57 47/86/57 13/87/57 
f 13/17/58 32/42/58 45/66/58 
f 47/88/59 46/67/59 14/18/59 
f 14/89/60 13/90/60 47/91/60 
f 46/67/61 26/35/61 15/19/61 
f 15/19/62 14/18/62 46/67/62 
f 26/92/63 25/93/63 16/94/63 
f 16/94/64 15/95/64 26/92/64 
f 25/34/65 40/54/65 33/43/65 
f 33/96/66 16/94/66 25/93/66 
f 42/97/67 22/98/67 24/99/67 
f 22/98/67 21/100/67 24/99/67 
f 23/101/68 19/102/68 42/97/68 
f 42/97/68 24/99/68 23/101/68 
f 41/103/67 20/104/67 19/102/67 
f 19/102/67 23/101/67 41/103/67 
f 38/105/69 20/104/69 48/106/69 
f 20/104/69 41/103/69 48/106/69 
f 49/107/70 50/108/70 51/109/70 
f 30/39/71 29/38/71 46/67/71 46/67/71 
f 50/108/72 49/107/72 52/110/72 
f 46/67/73 47/88/73 45/66/73 46/67/73 
f 52/111/74 45/112/74 10/113/74 
f 50/114/75 53/115/75 54/116/75 
f 45/117/76 52/118/76 46/119/76 
f 46/120/77 52/121/77 30/122/77 
f 52/121/78 44/65/78 30/122/78 
f 50/123/79 55/124/79 56/125/79 
f 51/126/80 50/127/80 56/128/80 
f 55/129/81 50/114/81 57/130/81 
f 50/114/82 54/116/82 57/130/82 
f 53/131/83 50/132/83 52/133/83 
f 52/133/84 10/134/84 53/131/84 
f 9/135/85 54/136/85 53/131/85 10/134/85 
f 54/137/86 9/13/86 36/47/86 57/138/86 
f 6/8/87 55/139/87 57/138/87 36/47/87 
f 5/7/88 56/140/88 55/139/88 6/8/88 
f 56/140/89 5/7/89 34/141/89 51/142/89 
f 44/143/90 49/107/90 51/109/90 34/144/90 
f 49/145/91 44/65/91 52/121/91 
f 21/100/67 43/146/67 24/99/67 
f 27/36/16 58/147/16 28/37/16 
f 28/37/27 58/147/27 39/53/27 
f 39/57/28 58/148/28 41/55/28 
f 41/103/68 58/149/68 48/106/68 
f 48/106/68 58/149/68 27/150/68 38/105/68 
# 10 polygons - 94 triangles

